<?xml version="1.0" standalone="no"?>
<!DOCTYPE svg PUBLIC "-//W3C//DTD SVG 20010904//EN"
 "http://www.w3.org/TR/2001/REC-SVG-20010904/DTD/svg10.dtd">
<svg version="1.0" xmlns="http://www.w3.org/2000/svg"
 width="512.000000pt" height="512.000000pt" viewBox="0 0 512.000000 512.000000"
 preserveAspectRatio="xMidYMid meet">

<g transform="translate(0.000000,512.000000) scale(0.100000,-0.100000)"
fill="#000000" stroke="none">
<path d="M153 4864 c-23 -9 -60 -33 -82 -55 -76 -77 -71 59 -71 -1767 0 -1212
3 -1645 12 -1673 15 -51 69 -114 122 -142 l41 -22 873 -3 872 -3 0 -244 0
-245 -175 0 c-200 0 -226 -6 -271 -66 -28 -36 -29 -43 -32 -153 -3 -105 -1
-120 20 -160 13 -25 36 -54 51 -65 28 -21 35 -21 1047 -21 1012 0 1019 0 1047
21 15 11 38 40 51 65 21 40 23 55 20 160 -3 110 -4 117 -32 153 -45 60 -71 66
-271 66 l-175 0 0 245 0 244 873 3 872 3 41 22 c53 28 107 91 122 142 9 28 12
461 12 1673 0 1825 5 1690 -71 1767 -78 77 142 71 -2493 70 -2063 0 -2366 -2
-2403 -15z m1447 -539 l0 -85 -565 0 -565 0 0 85 0 85 565 0 565 0 0 -85z
m3050 0 l0 -85 -135 0 c-131 0 -137 -1 -160 -25 -31 -30 -32 -71 -3 -102 20
-22 28 -23 160 -23 l138 0 0 -85 0 -85 -445 0 -445 0 0 85 0 85 171 0 c101 0
178 4 190 11 48 25 44 105 -7 128 -18 8 -347 11 -1194 11 l-1170 0 0 78 c0 43
3 82 7 85 3 4 656 7 1450 7 l1443 0 0 -85z m-3050 -1445 l0 -1210 -565 0 -565
0 0 1210 0 1210 565 0 565 0 0 -1210z m1040 1125 l0 -85 -445 0 -445 0 0 85 0
85 445 0 445 0 0 -85z m970 0 l0 -85 -405 0 -405 0 0 85 0 85 405 0 405 0 0
-85z m1040 -1285 l0 -1050 -1447 2 -1448 3 -3 1048 -2 1047 1450 0 1450 0 0
-1050z m-1807 -2087 c-24 -2 -62 -2 -85 0 -24 2 -5 4 42 4 47 0 66 -2 43 -4z"/>
<path d="M685 3909 c-49 -28 -58 -70 -24 -113 19 -24 27 -26 93 -26 63 0 75 3
94 23 27 29 28 67 3 98 -15 19 -30 23 -82 26 -36 2 -73 -1 -84 -8z"/>
<path d="M1084 3908 c-22 -10 -44 -47 -44 -72 0 -7 9 -25 21 -40 l20 -26 155
0 c141 0 156 2 174 20 30 30 27 83 -6 109 -24 19 -40 21 -163 20 -75 0 -146
-5 -157 -11z"/>
<path d="M685 3588 c-49 -29 -57 -70 -24 -112 19 -24 26 -26 94 -26 63 0 77 3
95 22 25 27 26 69 1 99 -15 19 -30 23 -82 26 -38 2 -72 -1 -84 -9z"/>
<path d="M1084 3589 c-22 -11 -44 -48 -44 -73 0 -7 9 -25 21 -40 l20 -26 155
0 c141 0 156 2 174 20 27 27 26 81 -1 106 -18 17 -39 19 -163 21 -85 2 -149
-2 -162 -8z"/>
<path d="M685 3268 c-49 -29 -57 -70 -24 -112 19 -24 26 -26 95 -26 84 0 114
18 114 69 0 52 -29 74 -101 78 -38 2 -72 -1 -84 -9z"/>
<path d="M1089 3269 c-25 -9 -49 -45 -49 -73 0 -7 9 -25 21 -40 l20 -26 155 0
c141 0 156 2 174 20 25 25 26 71 1 101 -18 23 -25 24 -158 26 -76 1 -150 -2
-164 -8z"/>
<path d="M689 2949 c-15 -6 -33 -23 -40 -41 -32 -79 75 -136 176 -94 58 24 61
102 5 131 -32 17 -101 19 -141 4z"/>
<path d="M1089 2949 c-38 -14 -57 -63 -38 -98 24 -42 54 -51 182 -51 137 0
182 13 193 56 9 37 -6 76 -36 91 -30 15 -261 16 -301 2z"/>
<path d="M689 2629 c-37 -14 -55 -60 -39 -98 20 -49 104 -66 175 -37 37 16 52
48 41 92 -12 45 -108 68 -177 43z"/>
<path d="M1090 2627 c-13 -7 -31 -25 -40 -40 -13 -24 -13 -30 0 -54 25 -44 54
-53 183 -53 135 0 182 13 193 54 11 44 -4 76 -41 92 -44 18 -259 19 -295 1z"/>
<path d="M2264 3189 c-124 -16 -249 -109 -300 -223 -57 -127 -57 -366 0 -493
107 -236 428 -300 620 -123 37 34 46 49 46 76 0 78 -71 97 -142 38 -58 -49
-101 -66 -168 -66 -68 0 -115 19 -168 67 -62 55 -77 106 -77 255 0 144 11 184
64 243 47 52 108 79 180 79 68 0 111 -17 169 -66 71 -59 142 -40 142 38 0 27
-9 41 -44 74 -90 83 -201 118 -322 101z"/>
<path d="M2824 3191 c-54 -23 -54 -23 -54 -466 0 -436 1 -448 49 -471 25 -13
75 -2 89 19 4 7 9 75 12 152 l5 140 97 3 97 3 78 -153 c84 -165 102 -184 154
-166 32 11 49 35 49 67 0 12 -27 76 -61 142 -33 67 -59 122 -57 123 2 1 24 14
50 29 89 51 148 157 148 267 0 123 -65 227 -177 282 l-67 33 -195 2 c-108 2
-206 -1 -217 -6z m429 -170 c102 -63 101 -221 -3 -280 -34 -19 -54 -21 -184
-21 l-146 0 0 158 c0 87 3 162 8 166 4 5 70 6 147 4 126 -3 144 -6 178 -27z"/>
<path d="M3654 3186 c-17 -8 -34 -21 -38 -31 -3 -9 -6 -208 -6 -441 0 -411 1
-425 20 -444 27 -27 81 -26 106 1 17 19 19 44 24 310 l5 290 105 -293 c58
-161 113 -301 123 -310 25 -26 81 -23 104 5 10 13 65 155 123 316 l105 293 5
-303 c3 -167 7 -305 8 -307 1 -2 16 -9 33 -16 40 -17 64 -11 89 22 19 24 20
42 20 443 l0 418 -23 27 c-18 20 -35 28 -73 31 -62 6 -99 -8 -117 -44 -8 -15
-61 -157 -117 -316 -57 -158 -107 -284 -110 -280 -4 5 -51 132 -105 283 -54
151 -104 289 -112 307 -23 50 -102 68 -169 39z"/>
</g>
</svg>
